# xmcd CD database file
#
# Track frame offsets:
#	150
#	13954
#	28878
#	48432
#	64049
#	82710
#	110344
#	128926
#	145062
#	159452
#	179549
#	191176
#	204067
#	220442
#	251724
#	271065
#
# Disc length: 3829 seconds
#
# Revision: 0
# Processed by: cddbd v1.5.2PL0 Copyright (c) Steve Scherf et al.
# Submitted via: CDex 1.79
#
DISCID=e50ef310
DTITLE=Various Artist - The Pinnacle Of Chesky Voice
DYEAR=2017
DGENRE=Jazz
TTITLE0=Rebecca Pidgeon - Kalerka
TTITLE1=Rosa Passos and Ron Carter - The Girl From Ipanema
TTITLE2=Marta Gomez - Confesion
TTITLE3=Amber Rubath - Full Moon In Paris
TTITLE4=Ana Caram - Fly Me To The Moon
TTITLE5=Laverne Butler - I Cover The Waterfront
TTITLE6=Sara K. - Vincent
TTITLE7=Christy Baron - She's Not There
TTITLE8=Valerie Joyce - Baby Can I Hold You
TTITLE9=Carla Lother - The Lake
TTITLE10=Alexis Cole - A Kiss In The Dark
TTITLE11=Christy Baron - Happy Together
TTITLE12=Laverne Butler - Day Dreaming
TTITLE13=Rachel Z - Imagine
TTITLE14=Macy Gray - I Try
TTITLE15=Melissa Menago - Airplane
EXTD=YEAR: 2017
EXTT0=
EXTT1=
EXTT2=
EXTT3=
EXTT4=
EXTT5=
EXTT6=
EXTT7=
EXTT8=
EXTT9=
EXTT10=
EXTT11=
EXTT12=
EXTT13=
EXTT14=
EXTT15=
PLAYORDER=
